<svg xmlns="http://www.w3.org/2000/svg" viewBox="0 0 334.5 88.5">
  <defs>
    <style>
      .cls-1 {
        fill: #EDD32C;
      }
    </style>
  </defs>
  <path
    class="cls-1"
    d="M49.6,78.5l.19.19L50,78.5Zm0,0,.19.19L50,78.5ZM78.5,21V10H10V78.5H49.6l.19.19L50,78.5H78.5V54.93l10-10V88.5H0V0H88.5V11ZM49.6,78.5H50l-.19.19Zm63-67.58L49.79,73.74l-22.1-22.1,7.07-7.07,15,15L105.53,3.85ZM49.6,78.5l.19.19L50,78.5Zm0,0,.19.19L50,78.5ZM163.28,61.1l-1.05,7.56H134.65V20.29h9.24V61.1Zm6.79,7.56V20.29h9.31V68.66Zm50.54-43.47-4.69,5.32a15.41,15.41,0,0,0-10.71-4.2c-4.34,0-7.49,2-7.49,5.74,0,3.5,1.89,5,9.94,7.56C216.13,42.27,222,45.77,222,54.87c0,8.68-6.79,14.84-18.34,14.84-7.7,0-13.44-2.73-17.43-6.65l4.9-5.46a17.23,17.23,0,0,0,12.32,5c5.18,0,8.89-2.52,8.89-7.21,0-4.06-2-5.88-9.59-8.19C192.61,44,188.2,40,188.2,32.61c0-8,6.93-13.37,16.45-13.37C211.72,19.24,216.41,21.34,220.61,25.19Zm26.11,2.45v41h-9.31v-41h-13V20.29H260.3l-1,7.35Zm28.84-.49V40.66H291.1v6.86H275.56V61.73h19.11v6.93H266.32V20.29h28.07l-1,6.86Zm45.36.49v41h-9.31v-41h-13V20.29H334.5l-1,7.35Z"
  />
</svg>
