<?xml version="1.0" standalone="no"?>
<!DOCTYPE svg PUBLIC "-//W3C//DTD SVG 20010904//EN"
 "http://www.w3.org/TR/2001/REC-SVG-20010904/DTD/svg10.dtd">
<svg version="1.0" xmlns="http://www.w3.org/2000/svg"
 width="700.000000pt" height="700.000000pt" viewBox="0 0 700.000000 700.000000"
 preserveAspectRatio="xMidYMid meet">
<metadata>
Created by potrace 1.11, written by Peter Selinger 2001-2013
</metadata>
<g transform="translate(0.000000,700.000000) scale(0.100000,-0.100000)"
fill="#000000" stroke="none">
<path d="M1952 3613 l3 -1548 1548 -3 1547 -2 0 767 0 768 -175 -175 -175
-175 0 -412 0 -413 -502 -2 c-277 -2 -817 -2 -1200 0 l-698 2 0 1195 0 1195
1200 0 1200 0 0 -192 0 -193 175 175 175 175 0 192 0 193 -1550 0 -1550 0 2
-1547z"/>
<path d="M4670 4055 l-975 -975 -262 262 -263 263 -125 -125 -125 -125 388
-388 387 -387 1100 1100 1100 1100 -125 125 -125 125 -975 -975z"/>
</g>
</svg>
