<?xml version="1.0" standalone="no"?>
<!DOCTYPE svg PUBLIC "-//W3C//DTD SVG 20010904//EN"
 "http://www.w3.org/TR/2001/REC-SVG-20010904/DTD/svg10.dtd">
<svg version="1.0" xmlns="http://www.w3.org/2000/svg"
 width="700.000000pt" height="700.000000pt" viewBox="0 0 700.000000 700.000000"
 preserveAspectRatio="xMidYMid meet">
<metadata>
Created by potrace 1.11, written by Peter Selinger 2001-2013
</metadata>
<g transform="translate(0.000000,700.000000) scale(0.100000,-0.100000)"
fill="#000000" stroke="none">
<path d="M1392 3523 l3 -1908 1905 0 1905 0 3 938 c1 515 -1 937 -6 937 -4 0
-103 -96 -220 -213 l-212 -212 0 -513 0 -512 -1475 0 -1475 0 0 1480 0 1480
1485 0 1485 0 0 -237 0 -238 215 215 215 215 0 237 0 238 -1915 0 -1915 0 2
-1907z"/>
<path d="M4753 4048 l-1203 -1203 -330 330 -330 330 -152 -153 -153 -152 475
-475 c261 -261 479 -475 485 -475 6 0 620 610 1365 1355 l1355 1355 -149 143
c-82 78 -152 143 -155 145 -3 1 -547 -539 -1208 -1200z"/>
</g>
</svg>
